<svg xmlns="http://www.w3.org/2000/svg" xmlns:xlink="http://www.w3.org/1999/xlink" viewBox="0 0 3193.41 759.64"><defs><style>.cls-1{fill:#00b9cd;}.cls-2{font-size:215.91px;fill:#1c201f;font-family:Poppins-Bold, Poppins;font-weight:700;}.cls-3{font-size:95.96px;fill:#1f1f1f;font-family:Poppins-Medium, Poppins;font-weight:500;}</style><symbol id="Academy_Logo" data-name="Academy Logo" viewBox="0 0 1460.82 347.49"><path class="cls-1" d="M196,74.48A113.08,113.08,0,1,0,309,187.56,113.09,113.09,0,0,0,196,74.48Zm-1.8,175.91L179.78,236l-12.53-12.54L156.57,212.8l-25.06,25-16.22-16.21,25-25-25-25.06,16.21-16.21,25.06,25.06,10.69-10.69,14.37-14.37,16.21,16.21-25.05,25.06L196,219.81l14.37,14.36Zm72.7-25L252.48,211,240,198.47l-10.68-10.68-25.06,25.05L188,196.63l25.06-25.06-25.06-25,16.21-16.21,25.06,25.05L240,144.68l14.36-14.37,16.22,16.21-25.06,25,23.21,23.23,14.37,14.35Z"/><path class="cls-1" d="M195.91,52.73a129.43,129.43,0,0,1,81.24,28.6l42.77-39.77a2.77,2.77,0,0,0-1.35-4.74L134.31.05a2.74,2.74,0,0,0-2.48.75L3.39,127.5a2.77,2.77,0,0,0,1.36,4.67l66.3,14.37C86.78,92.41,136.78,52.73,195.91,52.73Z"/><path class="cls-1" d="M17,193.54a21.78,21.78,0,0,1,6.69,1.14L3.87,147.27l-1.3.27.66,50.94A22,22,0,0,1,17,193.54Z"/><circle class="cls-1" cx="17.71" cy="221.76" r="17.71"/><text class="cls-2" transform="translate(379.76 185.75)">Academy</text><text class="cls-3" transform="translate(379.76 291.64)">By Blind Gallery</text></symbol></defs><g id="Capa_2" data-name="Capa 2"><g id="Capa_1-2" data-name="Capa 1"><use width="1460.82" height="347.49" transform="scale(2.19)" xlink:href="#Academy_Logo"/></g></g></svg>